<mxfile host="app.diagrams.net" modified="2021-10-05T23:34:29.259Z" agent="5.0 (Windows)" etag="3qpOQdqqi6_4gg58Pv4x" version="15.4.3" type="github">
  <diagram id="1vaKE7BidPJPBhiYEMTJ" name="Page-1">
    <mxGraphModel dx="1888" dy="564" grid="1" gridSize="10" guides="1" tooltips="1" connect="1" arrows="1" fold="1" page="1" pageScale="1" pageWidth="850" pageHeight="1100" math="0" shadow="0">
      <root>
        <mxCell id="0" />
        <mxCell id="1" parent="0" />
        <mxCell id="vpqVdJL7Bu57h3PjeGCv-55" style="edgeStyle=orthogonalEdgeStyle;rounded=0;orthogonalLoop=1;jettySize=auto;html=1;exitX=0.75;exitY=1;exitDx=0;exitDy=0;entryX=0.75;entryY=0;entryDx=0;entryDy=0;" parent="1" source="vpqVdJL7Bu57h3PjeGCv-1" target="vpqVdJL7Bu57h3PjeGCv-9" edge="1">
          <mxGeometry relative="1" as="geometry" />
        </mxCell>
        <mxCell id="vpqVdJL7Bu57h3PjeGCv-1" value="OffScreen" style="swimlane;fontStyle=1;align=center;verticalAlign=middle;childLayout=stackLayout;horizontal=1;startSize=30;horizontalStack=0;resizeParent=0;resizeLast=1;container=0;collapsible=0;rounded=1;arcSize=30;swimlaneFillColor=#FEFFFA;dropTarget=0;" parent="1" vertex="1">
          <mxGeometry x="190" y="140" width="160" height="60" as="geometry" />
        </mxCell>
        <mxCell id="vpqVdJL7Bu57h3PjeGCv-2" value="magOn = 0" style="text;html=1;align=center;verticalAlign=middle;spacingLeft=4;spacingRight=4;whiteSpace=wrap;overflow=hidden;rotatable=0;" parent="vpqVdJL7Bu57h3PjeGCv-1" vertex="1">
          <mxGeometry y="30" width="160" height="30" as="geometry" />
        </mxCell>
        <mxCell id="vpqVdJL7Bu57h3PjeGCv-3" value="" style="edgeStyle=orthogonalEdgeStyle;html=1;verticalAlign=bottom;endArrow=open;endSize=8;rounded=0;entryX=0.375;entryY=0;entryDx=0;entryDy=0;entryPerimeter=0;" parent="1" source="vpqVdJL7Bu57h3PjeGCv-1" target="vpqVdJL7Bu57h3PjeGCv-5" edge="1">
          <mxGeometry relative="1" as="geometry">
            <mxPoint x="270" y="260" as="targetPoint" />
          </mxGeometry>
        </mxCell>
        <mxCell id="vpqVdJL7Bu57h3PjeGCv-5" value="LeftBox" style="swimlane;fontStyle=1;align=center;verticalAlign=middle;childLayout=stackLayout;horizontal=1;startSize=30;horizontalStack=0;resizeParent=0;resizeLast=1;container=0;collapsible=0;rounded=1;arcSize=30;swimlaneFillColor=#FEFFFA;dropTarget=0;" parent="1" vertex="1">
          <mxGeometry x="30" y="350" width="160" height="60" as="geometry" />
        </mxCell>
        <mxCell id="vpqVdJL7Bu57h3PjeGCv-6" value="magOn = 0" style="text;html=1;align=center;verticalAlign=middle;spacingLeft=4;spacingRight=4;whiteSpace=wrap;overflow=hidden;rotatable=0;" parent="vpqVdJL7Bu57h3PjeGCv-5" vertex="1">
          <mxGeometry y="30" width="160" height="30" as="geometry" />
        </mxCell>
        <mxCell id="vpqVdJL7Bu57h3PjeGCv-8" value="Subtitle" style="text;html=1;align=center;verticalAlign=middle;spacingLeft=4;spacingRight=4;whiteSpace=wrap;overflow=hidden;rotatable=0;" parent="vpqVdJL7Bu57h3PjeGCv-5" vertex="1">
          <mxGeometry y="60" width="160" as="geometry" />
        </mxCell>
        <mxCell id="vpqVdJL7Bu57h3PjeGCv-7" value="" style="edgeStyle=orthogonalEdgeStyle;html=1;verticalAlign=bottom;endArrow=open;endSize=8;rounded=0;entryX=0.681;entryY=0;entryDx=0;entryDy=0;entryPerimeter=0;exitX=0.831;exitY=1.067;exitDx=0;exitDy=0;exitPerimeter=0;" parent="1" source="vpqVdJL7Bu57h3PjeGCv-6" target="vpqVdJL7Bu57h3PjeGCv-30" edge="1">
          <mxGeometry relative="1" as="geometry">
            <mxPoint x="110" y="470" as="targetPoint" />
            <Array as="points">
              <mxPoint x="163" y="410" />
              <mxPoint x="339" y="410" />
            </Array>
          </mxGeometry>
        </mxCell>
        <mxCell id="vpqVdJL7Bu57h3PjeGCv-75" value="**11" style="edgeLabel;html=1;align=center;verticalAlign=middle;resizable=0;points=[];" parent="vpqVdJL7Bu57h3PjeGCv-7" vertex="1" connectable="0">
          <mxGeometry x="-0.6128" y="-4" relative="1" as="geometry">
            <mxPoint as="offset" />
          </mxGeometry>
        </mxCell>
        <mxCell id="vpqVdJL7Bu57h3PjeGCv-9" value="Left" style="swimlane;fontStyle=1;align=center;verticalAlign=middle;childLayout=stackLayout;horizontal=1;startSize=30;horizontalStack=0;resizeParent=0;resizeLast=1;container=0;collapsible=0;rounded=1;arcSize=30;swimlaneFillColor=#FEFFFA;dropTarget=0;" parent="1" vertex="1">
          <mxGeometry x="460" y="360" width="160" height="60" as="geometry" />
        </mxCell>
        <mxCell id="vpqVdJL7Bu57h3PjeGCv-10" value="magOn=0" style="text;html=1;align=center;verticalAlign=middle;spacingLeft=4;spacingRight=4;whiteSpace=wrap;overflow=hidden;rotatable=0;" parent="vpqVdJL7Bu57h3PjeGCv-9" vertex="1">
          <mxGeometry y="30" width="160" height="30" as="geometry" />
        </mxCell>
        <mxCell id="vpqVdJL7Bu57h3PjeGCv-12" value="Subtitle" style="text;html=1;align=center;verticalAlign=middle;spacingLeft=4;spacingRight=4;whiteSpace=wrap;overflow=hidden;rotatable=0;" parent="vpqVdJL7Bu57h3PjeGCv-9" vertex="1">
          <mxGeometry y="60" width="160" as="geometry" />
        </mxCell>
        <mxCell id="vpqVdJL7Bu57h3PjeGCv-14" value="Mid" style="swimlane;fontStyle=1;align=center;verticalAlign=middle;childLayout=stackLayout;horizontal=1;startSize=30;horizontalStack=0;resizeParent=0;resizeLast=1;container=0;collapsible=0;rounded=1;arcSize=30;swimlaneFillColor=#FEFFFA;dropTarget=0;" parent="1" vertex="1">
          <mxGeometry x="450" y="490" width="160" height="60" as="geometry" />
        </mxCell>
        <mxCell id="vpqVdJL7Bu57h3PjeGCv-15" value="magOn=0" style="text;html=1;align=center;verticalAlign=middle;spacingLeft=4;spacingRight=4;whiteSpace=wrap;overflow=hidden;rotatable=0;" parent="vpqVdJL7Bu57h3PjeGCv-14" vertex="1">
          <mxGeometry y="30" width="160" height="30" as="geometry" />
        </mxCell>
        <mxCell id="vpqVdJL7Bu57h3PjeGCv-16" value="Subtitle" style="text;html=1;align=center;verticalAlign=middle;spacingLeft=4;spacingRight=4;whiteSpace=wrap;overflow=hidden;rotatable=0;" parent="vpqVdJL7Bu57h3PjeGCv-14" vertex="1">
          <mxGeometry y="60" width="160" as="geometry" />
        </mxCell>
        <mxCell id="vpqVdJL7Bu57h3PjeGCv-17" value="" style="edgeStyle=orthogonalEdgeStyle;html=1;verticalAlign=bottom;endArrow=open;endSize=8;rounded=0;" parent="vpqVdJL7Bu57h3PjeGCv-14" source="vpqVdJL7Bu57h3PjeGCv-14" target="vpqVdJL7Bu57h3PjeGCv-15" edge="1">
          <mxGeometry relative="1" as="geometry">
            <mxPoint x="-170" y="-80" as="targetPoint" />
            <Array as="points">
              <mxPoint x="-40" y="-30" />
            </Array>
          </mxGeometry>
        </mxCell>
        <mxCell id="vpqVdJL7Bu57h3PjeGCv-18" value="0*11" style="edgeLabel;html=1;align=center;verticalAlign=middle;resizable=0;points=[];" parent="vpqVdJL7Bu57h3PjeGCv-17" vertex="1" connectable="0">
          <mxGeometry x="-0.5245" y="1" relative="1" as="geometry">
            <mxPoint as="offset" />
          </mxGeometry>
        </mxCell>
        <mxCell id="vpqVdJL7Bu57h3PjeGCv-20" value="Right" style="swimlane;fontStyle=1;align=center;verticalAlign=middle;childLayout=stackLayout;horizontal=1;startSize=30;horizontalStack=0;resizeParent=0;resizeLast=1;container=0;collapsible=0;rounded=1;arcSize=30;swimlaneFillColor=#FEFFFA;dropTarget=0;" parent="1" vertex="1">
          <mxGeometry x="540" y="610" width="160" height="60" as="geometry" />
        </mxCell>
        <mxCell id="vpqVdJL7Bu57h3PjeGCv-21" value="magOn=0" style="text;html=1;align=center;verticalAlign=middle;spacingLeft=4;spacingRight=4;whiteSpace=wrap;overflow=hidden;rotatable=0;" parent="vpqVdJL7Bu57h3PjeGCv-20" vertex="1">
          <mxGeometry y="30" width="160" height="30" as="geometry" />
        </mxCell>
        <mxCell id="vpqVdJL7Bu57h3PjeGCv-22" value="Subtitle" style="text;html=1;align=center;verticalAlign=middle;spacingLeft=4;spacingRight=4;whiteSpace=wrap;overflow=hidden;rotatable=0;" parent="vpqVdJL7Bu57h3PjeGCv-20" vertex="1">
          <mxGeometry y="60" width="160" as="geometry" />
        </mxCell>
        <mxCell id="vpqVdJL7Bu57h3PjeGCv-23" value="" style="edgeStyle=orthogonalEdgeStyle;html=1;verticalAlign=bottom;endArrow=open;endSize=8;rounded=0;" parent="vpqVdJL7Bu57h3PjeGCv-20" source="vpqVdJL7Bu57h3PjeGCv-20" target="vpqVdJL7Bu57h3PjeGCv-21" edge="1">
          <mxGeometry relative="1" as="geometry">
            <mxPoint x="-170" y="-80" as="targetPoint" />
            <Array as="points">
              <mxPoint x="-40" y="-30" />
            </Array>
          </mxGeometry>
        </mxCell>
        <mxCell id="vpqVdJL7Bu57h3PjeGCv-24" value="**01" style="edgeLabel;html=1;align=center;verticalAlign=middle;resizable=0;points=[];" parent="vpqVdJL7Bu57h3PjeGCv-23" vertex="1" connectable="0">
          <mxGeometry x="-0.5245" y="1" relative="1" as="geometry">
            <mxPoint as="offset" />
          </mxGeometry>
        </mxCell>
        <mxCell id="vpqVdJL7Bu57h3PjeGCv-25" value="RightBox" style="swimlane;fontStyle=1;align=center;verticalAlign=middle;childLayout=stackLayout;horizontal=1;startSize=30;horizontalStack=0;resizeParent=0;resizeLast=1;container=0;collapsible=0;rounded=1;arcSize=30;swimlaneFillColor=#FEFFFA;dropTarget=0;" parent="1" vertex="1">
          <mxGeometry x="300" y="640" width="160" height="60" as="geometry" />
        </mxCell>
        <mxCell id="vpqVdJL7Bu57h3PjeGCv-26" value="magOn=1" style="text;html=1;align=center;verticalAlign=middle;spacingLeft=4;spacingRight=4;whiteSpace=wrap;overflow=hidden;rotatable=0;" parent="vpqVdJL7Bu57h3PjeGCv-25" vertex="1">
          <mxGeometry y="30" width="160" height="30" as="geometry" />
        </mxCell>
        <mxCell id="vpqVdJL7Bu57h3PjeGCv-27" value="Subtitle" style="text;html=1;align=center;verticalAlign=middle;spacingLeft=4;spacingRight=4;whiteSpace=wrap;overflow=hidden;rotatable=0;" parent="vpqVdJL7Bu57h3PjeGCv-25" vertex="1">
          <mxGeometry y="60" width="160" as="geometry" />
        </mxCell>
        <mxCell id="vpqVdJL7Bu57h3PjeGCv-28" value="" style="edgeStyle=orthogonalEdgeStyle;html=1;verticalAlign=bottom;endArrow=open;endSize=8;rounded=0;" parent="vpqVdJL7Bu57h3PjeGCv-25" source="vpqVdJL7Bu57h3PjeGCv-25" target="vpqVdJL7Bu57h3PjeGCv-26" edge="1">
          <mxGeometry relative="1" as="geometry">
            <mxPoint x="-170" y="-80" as="targetPoint" />
            <Array as="points">
              <mxPoint x="-40" y="-30" />
            </Array>
          </mxGeometry>
        </mxCell>
        <mxCell id="vpqVdJL7Bu57h3PjeGCv-29" value="**01" style="edgeLabel;html=1;align=center;verticalAlign=middle;resizable=0;points=[];" parent="vpqVdJL7Bu57h3PjeGCv-28" vertex="1" connectable="0">
          <mxGeometry x="-0.5245" y="1" relative="1" as="geometry">
            <mxPoint as="offset" />
          </mxGeometry>
        </mxCell>
        <mxCell id="vpqVdJL7Bu57h3PjeGCv-30" value="MidBox" style="swimlane;fontStyle=1;align=center;verticalAlign=middle;childLayout=stackLayout;horizontal=1;startSize=30;horizontalStack=0;resizeParent=0;resizeLast=1;container=0;collapsible=0;rounded=1;arcSize=30;swimlaneFillColor=#FEFFFA;dropTarget=0;" parent="1" vertex="1">
          <mxGeometry x="230" y="480" width="160" height="60" as="geometry" />
        </mxCell>
        <mxCell id="vpqVdJL7Bu57h3PjeGCv-31" value="magOn=1" style="text;html=1;align=center;verticalAlign=middle;spacingLeft=4;spacingRight=4;whiteSpace=wrap;overflow=hidden;rotatable=0;" parent="vpqVdJL7Bu57h3PjeGCv-30" vertex="1">
          <mxGeometry y="30" width="160" height="30" as="geometry" />
        </mxCell>
        <mxCell id="vpqVdJL7Bu57h3PjeGCv-32" value="Subtitle" style="text;html=1;align=center;verticalAlign=middle;spacingLeft=4;spacingRight=4;whiteSpace=wrap;overflow=hidden;rotatable=0;" parent="vpqVdJL7Bu57h3PjeGCv-30" vertex="1">
          <mxGeometry y="60" width="160" as="geometry" />
        </mxCell>
        <mxCell id="vpqVdJL7Bu57h3PjeGCv-33" value="" style="edgeStyle=orthogonalEdgeStyle;html=1;verticalAlign=bottom;endArrow=open;endSize=8;rounded=0;" parent="vpqVdJL7Bu57h3PjeGCv-30" source="vpqVdJL7Bu57h3PjeGCv-30" target="vpqVdJL7Bu57h3PjeGCv-31" edge="1">
          <mxGeometry relative="1" as="geometry">
            <mxPoint x="-170" y="-80" as="targetPoint" />
            <Array as="points">
              <mxPoint x="-40" y="-30" />
            </Array>
          </mxGeometry>
        </mxCell>
        <mxCell id="vpqVdJL7Bu57h3PjeGCv-34" value="*001" style="edgeLabel;html=1;align=center;verticalAlign=middle;resizable=0;points=[];" parent="vpqVdJL7Bu57h3PjeGCv-33" vertex="1" connectable="0">
          <mxGeometry x="-0.5245" y="1" relative="1" as="geometry">
            <mxPoint as="offset" />
          </mxGeometry>
        </mxCell>
        <mxCell id="vpqVdJL7Bu57h3PjeGCv-35" value="MidDiv" style="swimlane;fontStyle=1;align=center;verticalAlign=middle;childLayout=stackLayout;horizontal=1;startSize=30;horizontalStack=0;resizeParent=0;resizeLast=1;container=0;collapsible=0;rounded=1;arcSize=30;swimlaneFillColor=#FEFFFA;dropTarget=0;" parent="1" vertex="1">
          <mxGeometry x="-20" y="480" width="160" height="60" as="geometry" />
        </mxCell>
        <mxCell id="vpqVdJL7Bu57h3PjeGCv-36" value="magOn=0" style="text;html=1;align=center;verticalAlign=middle;spacingLeft=4;spacingRight=4;whiteSpace=wrap;overflow=hidden;rotatable=0;" parent="vpqVdJL7Bu57h3PjeGCv-35" vertex="1">
          <mxGeometry y="30" width="160" height="30" as="geometry" />
        </mxCell>
        <mxCell id="vpqVdJL7Bu57h3PjeGCv-37" value="Subtitle" style="text;html=1;align=center;verticalAlign=middle;spacingLeft=4;spacingRight=4;whiteSpace=wrap;overflow=hidden;rotatable=0;" parent="vpqVdJL7Bu57h3PjeGCv-35" vertex="1">
          <mxGeometry y="60" width="160" as="geometry" />
        </mxCell>
        <mxCell id="vpqVdJL7Bu57h3PjeGCv-38" value="" style="edgeStyle=orthogonalEdgeStyle;html=1;verticalAlign=bottom;endArrow=open;endSize=8;rounded=0;" parent="vpqVdJL7Bu57h3PjeGCv-35" source="vpqVdJL7Bu57h3PjeGCv-35" target="vpqVdJL7Bu57h3PjeGCv-36" edge="1">
          <mxGeometry relative="1" as="geometry">
            <mxPoint x="-170" y="-80" as="targetPoint" />
            <Array as="points">
              <mxPoint x="-40" y="-30" />
            </Array>
          </mxGeometry>
        </mxCell>
        <mxCell id="vpqVdJL7Bu57h3PjeGCv-39" value="**11" style="edgeLabel;html=1;align=center;verticalAlign=middle;resizable=0;points=[];" parent="vpqVdJL7Bu57h3PjeGCv-38" vertex="1" connectable="0">
          <mxGeometry x="-0.5245" y="1" relative="1" as="geometry">
            <mxPoint as="offset" />
          </mxGeometry>
        </mxCell>
        <mxCell id="vpqVdJL7Bu57h3PjeGCv-40" value="RBoxDiv" style="swimlane;fontStyle=1;align=center;verticalAlign=middle;childLayout=stackLayout;horizontal=1;startSize=30;horizontalStack=0;resizeParent=0;resizeLast=1;container=0;collapsible=0;rounded=1;arcSize=30;swimlaneFillColor=#FEFFFA;dropTarget=0;" parent="1" vertex="1">
          <mxGeometry x="-20" y="610" width="160" height="60" as="geometry" />
        </mxCell>
        <mxCell id="vpqVdJL7Bu57h3PjeGCv-41" value="magOn=1" style="text;html=1;align=center;verticalAlign=middle;spacingLeft=4;spacingRight=4;whiteSpace=wrap;overflow=hidden;rotatable=0;" parent="vpqVdJL7Bu57h3PjeGCv-40" vertex="1">
          <mxGeometry y="30" width="160" height="30" as="geometry" />
        </mxCell>
        <mxCell id="vpqVdJL7Bu57h3PjeGCv-42" value="Subtitle" style="text;html=1;align=center;verticalAlign=middle;spacingLeft=4;spacingRight=4;whiteSpace=wrap;overflow=hidden;rotatable=0;" parent="vpqVdJL7Bu57h3PjeGCv-40" vertex="1">
          <mxGeometry y="60" width="160" as="geometry" />
        </mxCell>
        <mxCell id="vpqVdJL7Bu57h3PjeGCv-43" value="" style="edgeStyle=orthogonalEdgeStyle;html=1;verticalAlign=bottom;endArrow=open;endSize=8;rounded=0;" parent="vpqVdJL7Bu57h3PjeGCv-40" source="vpqVdJL7Bu57h3PjeGCv-40" target="vpqVdJL7Bu57h3PjeGCv-41" edge="1">
          <mxGeometry relative="1" as="geometry">
            <mxPoint x="-170" y="-80" as="targetPoint" />
            <Array as="points">
              <mxPoint x="-40" y="-30" />
            </Array>
          </mxGeometry>
        </mxCell>
        <mxCell id="vpqVdJL7Bu57h3PjeGCv-44" value="**01" style="edgeLabel;html=1;align=center;verticalAlign=middle;resizable=0;points=[];" parent="vpqVdJL7Bu57h3PjeGCv-43" vertex="1" connectable="0">
          <mxGeometry x="-0.5245" y="1" relative="1" as="geometry">
            <mxPoint as="offset" />
          </mxGeometry>
        </mxCell>
        <mxCell id="vpqVdJL7Bu57h3PjeGCv-78" style="edgeStyle=orthogonalEdgeStyle;rounded=0;orthogonalLoop=1;jettySize=auto;html=1;exitX=0;exitY=1;exitDx=0;exitDy=0;entryX=0.25;entryY=1;entryDx=0;entryDy=0;" parent="1" source="vpqVdJL7Bu57h3PjeGCv-45" target="vpqVdJL7Bu57h3PjeGCv-36" edge="1">
          <mxGeometry relative="1" as="geometry">
            <Array as="points">
              <mxPoint x="70" y="850" />
              <mxPoint x="-90" y="850" />
              <mxPoint x="-90" y="540" />
            </Array>
          </mxGeometry>
        </mxCell>
        <mxCell id="vpqVdJL7Bu57h3PjeGCv-79" value="*111" style="edgeLabel;html=1;align=center;verticalAlign=middle;resizable=0;points=[];" parent="vpqVdJL7Bu57h3PjeGCv-78" vertex="1" connectable="0">
          <mxGeometry x="-0.8267" y="1" relative="1" as="geometry">
            <mxPoint as="offset" />
          </mxGeometry>
        </mxCell>
        <mxCell id="vpqVdJL7Bu57h3PjeGCv-45" value="Drop" style="swimlane;fontStyle=1;align=center;verticalAlign=middle;childLayout=stackLayout;horizontal=1;startSize=30;horizontalStack=0;resizeParent=0;resizeLast=1;container=0;collapsible=0;rounded=1;arcSize=30;swimlaneFillColor=#FEFFFA;dropTarget=0;" parent="1" vertex="1">
          <mxGeometry x="70" y="770" width="160" height="60" as="geometry" />
        </mxCell>
        <mxCell id="vpqVdJL7Bu57h3PjeGCv-46" value="magOn=0" style="text;html=1;align=center;verticalAlign=middle;spacingLeft=4;spacingRight=4;whiteSpace=wrap;overflow=hidden;rotatable=0;" parent="vpqVdJL7Bu57h3PjeGCv-45" vertex="1">
          <mxGeometry y="30" width="160" height="30" as="geometry" />
        </mxCell>
        <mxCell id="vpqVdJL7Bu57h3PjeGCv-47" value="Subtitle" style="text;html=1;align=center;verticalAlign=middle;spacingLeft=4;spacingRight=4;whiteSpace=wrap;overflow=hidden;rotatable=0;" parent="vpqVdJL7Bu57h3PjeGCv-45" vertex="1">
          <mxGeometry y="60" width="160" as="geometry" />
        </mxCell>
        <mxCell id="vpqVdJL7Bu57h3PjeGCv-48" value="" style="edgeStyle=orthogonalEdgeStyle;html=1;verticalAlign=bottom;endArrow=open;endSize=8;rounded=0;" parent="vpqVdJL7Bu57h3PjeGCv-45" source="vpqVdJL7Bu57h3PjeGCv-45" target="vpqVdJL7Bu57h3PjeGCv-46" edge="1">
          <mxGeometry relative="1" as="geometry">
            <mxPoint x="-170" y="-80" as="targetPoint" />
            <Array as="points">
              <mxPoint x="-40" y="-30" />
            </Array>
          </mxGeometry>
        </mxCell>
        <mxCell id="vpqVdJL7Bu57h3PjeGCv-49" value="**00/**01" style="edgeLabel;html=1;align=center;verticalAlign=middle;resizable=0;points=[];" parent="vpqVdJL7Bu57h3PjeGCv-48" vertex="1" connectable="0">
          <mxGeometry x="-0.5245" y="1" relative="1" as="geometry">
            <mxPoint as="offset" />
          </mxGeometry>
        </mxCell>
        <mxCell id="vpqVdJL7Bu57h3PjeGCv-51" style="edgeStyle=orthogonalEdgeStyle;rounded=0;orthogonalLoop=1;jettySize=auto;html=1;exitX=0.75;exitY=0;exitDx=0;exitDy=0;entryX=1;entryY=0.25;entryDx=0;entryDy=0;" parent="1" source="vpqVdJL7Bu57h3PjeGCv-5" target="vpqVdJL7Bu57h3PjeGCv-5" edge="1">
          <mxGeometry relative="1" as="geometry" />
        </mxCell>
        <mxCell id="vpqVdJL7Bu57h3PjeGCv-52" value="**10" style="edgeLabel;html=1;align=center;verticalAlign=middle;resizable=0;points=[];" parent="vpqVdJL7Bu57h3PjeGCv-51" vertex="1" connectable="0">
          <mxGeometry x="0.0667" y="3" relative="1" as="geometry">
            <mxPoint as="offset" />
          </mxGeometry>
        </mxCell>
        <mxCell id="vpqVdJL7Bu57h3PjeGCv-53" style="edgeStyle=orthogonalEdgeStyle;rounded=0;orthogonalLoop=1;jettySize=auto;html=1;exitX=0.25;exitY=0;exitDx=0;exitDy=0;entryX=1.006;entryY=0.15;entryDx=0;entryDy=0;entryPerimeter=0;" parent="1" source="vpqVdJL7Bu57h3PjeGCv-1" target="vpqVdJL7Bu57h3PjeGCv-1" edge="1">
          <mxGeometry relative="1" as="geometry" />
        </mxCell>
        <mxCell id="vpqVdJL7Bu57h3PjeGCv-54" value="**00" style="edgeLabel;html=1;align=center;verticalAlign=middle;resizable=0;points=[];" parent="vpqVdJL7Bu57h3PjeGCv-53" vertex="1" connectable="0">
          <mxGeometry x="-0.2405" y="2" relative="1" as="geometry">
            <mxPoint as="offset" />
          </mxGeometry>
        </mxCell>
        <mxCell id="vpqVdJL7Bu57h3PjeGCv-56" value="1*10" style="text;html=1;align=center;verticalAlign=middle;resizable=0;points=[];autosize=1;strokeColor=none;fillColor=none;" parent="1" vertex="1">
          <mxGeometry x="220" y="220" width="40" height="20" as="geometry" />
        </mxCell>
        <mxCell id="vpqVdJL7Bu57h3PjeGCv-57" value="0*10" style="text;html=1;align=center;verticalAlign=middle;resizable=0;points=[];autosize=1;strokeColor=none;fillColor=none;" parent="1" vertex="1">
          <mxGeometry x="310" y="220" width="40" height="20" as="geometry" />
        </mxCell>
        <mxCell id="vpqVdJL7Bu57h3PjeGCv-58" style="edgeStyle=orthogonalEdgeStyle;rounded=0;orthogonalLoop=1;jettySize=auto;html=1;exitX=0;exitY=0;exitDx=0;exitDy=0;entryX=1;entryY=0.25;entryDx=0;entryDy=0;" parent="1" source="vpqVdJL7Bu57h3PjeGCv-10" target="vpqVdJL7Bu57h3PjeGCv-6" edge="1">
          <mxGeometry relative="1" as="geometry" />
        </mxCell>
        <mxCell id="vpqVdJL7Bu57h3PjeGCv-59" value="1*10" style="edgeLabel;html=1;align=center;verticalAlign=middle;resizable=0;points=[];" parent="vpqVdJL7Bu57h3PjeGCv-58" vertex="1" connectable="0">
          <mxGeometry x="-0.1089" y="5" relative="1" as="geometry">
            <mxPoint as="offset" />
          </mxGeometry>
        </mxCell>
        <mxCell id="vpqVdJL7Bu57h3PjeGCv-11" value="" style="edgeStyle=orthogonalEdgeStyle;html=1;verticalAlign=bottom;endArrow=open;endSize=8;rounded=0;entryX=0.075;entryY=-0.033;entryDx=0;entryDy=0;entryPerimeter=0;" parent="1" source="vpqVdJL7Bu57h3PjeGCv-9" target="vpqVdJL7Bu57h3PjeGCv-9" edge="1">
          <mxGeometry relative="1" as="geometry">
            <mxPoint x="290" y="280" as="targetPoint" />
            <Array as="points">
              <mxPoint x="540" y="330" />
              <mxPoint x="420" y="330" />
              <mxPoint x="420" y="358" />
            </Array>
          </mxGeometry>
        </mxCell>
        <mxCell id="vpqVdJL7Bu57h3PjeGCv-13" value="0*10" style="edgeLabel;html=1;align=center;verticalAlign=middle;resizable=0;points=[];" parent="vpqVdJL7Bu57h3PjeGCv-11" vertex="1" connectable="0">
          <mxGeometry x="-0.5245" y="1" relative="1" as="geometry">
            <mxPoint as="offset" />
          </mxGeometry>
        </mxCell>
        <mxCell id="vpqVdJL7Bu57h3PjeGCv-60" style="edgeStyle=orthogonalEdgeStyle;rounded=0;orthogonalLoop=1;jettySize=auto;html=1;exitX=0.5;exitY=1;exitDx=0;exitDy=0;entryX=0.7;entryY=0.05;entryDx=0;entryDy=0;entryPerimeter=0;" parent="1" source="vpqVdJL7Bu57h3PjeGCv-10" target="vpqVdJL7Bu57h3PjeGCv-14" edge="1">
          <mxGeometry relative="1" as="geometry" />
        </mxCell>
        <mxCell id="vpqVdJL7Bu57h3PjeGCv-61" value="**11" style="edgeLabel;html=1;align=center;verticalAlign=middle;resizable=0;points=[];" parent="vpqVdJL7Bu57h3PjeGCv-60" vertex="1" connectable="0">
          <mxGeometry x="0.2421" y="-2" relative="1" as="geometry">
            <mxPoint as="offset" />
          </mxGeometry>
        </mxCell>
        <mxCell id="vpqVdJL7Bu57h3PjeGCv-62" style="edgeStyle=orthogonalEdgeStyle;rounded=0;orthogonalLoop=1;jettySize=auto;html=1;exitX=0.25;exitY=1;exitDx=0;exitDy=0;entryX=0.75;entryY=0;entryDx=0;entryDy=0;startArrow=none;" parent="1" source="vpqVdJL7Bu57h3PjeGCv-63" target="vpqVdJL7Bu57h3PjeGCv-25" edge="1">
          <mxGeometry relative="1" as="geometry" />
        </mxCell>
        <mxCell id="vpqVdJL7Bu57h3PjeGCv-64" style="edgeStyle=orthogonalEdgeStyle;rounded=0;orthogonalLoop=1;jettySize=auto;html=1;exitX=1;exitY=0.75;exitDx=0;exitDy=0;entryX=0.794;entryY=0;entryDx=0;entryDy=0;entryPerimeter=0;" parent="1" source="vpqVdJL7Bu57h3PjeGCv-15" target="vpqVdJL7Bu57h3PjeGCv-20" edge="1">
          <mxGeometry relative="1" as="geometry" />
        </mxCell>
        <mxCell id="vpqVdJL7Bu57h3PjeGCv-65" value="*001" style="edgeLabel;html=1;align=center;verticalAlign=middle;resizable=0;points=[];" parent="vpqVdJL7Bu57h3PjeGCv-64" vertex="1" connectable="0">
          <mxGeometry x="0.1647" relative="1" as="geometry">
            <mxPoint as="offset" />
          </mxGeometry>
        </mxCell>
        <mxCell id="vpqVdJL7Bu57h3PjeGCv-66" style="edgeStyle=orthogonalEdgeStyle;rounded=0;orthogonalLoop=1;jettySize=auto;html=1;exitX=1;exitY=0.5;exitDx=0;exitDy=0;entryX=1;entryY=0.5;entryDx=0;entryDy=0;" parent="1" source="vpqVdJL7Bu57h3PjeGCv-21" target="vpqVdJL7Bu57h3PjeGCv-2" edge="1">
          <mxGeometry relative="1" as="geometry" />
        </mxCell>
        <mxCell id="vpqVdJL7Bu57h3PjeGCv-67" value="**00" style="edgeLabel;html=1;align=center;verticalAlign=middle;resizable=0;points=[];" parent="vpqVdJL7Bu57h3PjeGCv-66" vertex="1" connectable="0">
          <mxGeometry x="-0.9" y="-4" relative="1" as="geometry">
            <mxPoint as="offset" />
          </mxGeometry>
        </mxCell>
        <mxCell id="vpqVdJL7Bu57h3PjeGCv-68" style="edgeStyle=orthogonalEdgeStyle;rounded=0;orthogonalLoop=1;jettySize=auto;html=1;exitX=0.75;exitY=1;exitDx=0;exitDy=0;entryX=1;entryY=0;entryDx=0;entryDy=0;" parent="1" source="vpqVdJL7Bu57h3PjeGCv-26" target="vpqVdJL7Bu57h3PjeGCv-2" edge="1">
          <mxGeometry relative="1" as="geometry">
            <Array as="points">
              <mxPoint x="440" y="700" />
              <mxPoint x="440" y="720" />
              <mxPoint x="790" y="720" />
              <mxPoint x="790" y="170" />
            </Array>
          </mxGeometry>
        </mxCell>
        <mxCell id="vpqVdJL7Bu57h3PjeGCv-69" value="**00" style="edgeLabel;html=1;align=center;verticalAlign=middle;resizable=0;points=[];" parent="vpqVdJL7Bu57h3PjeGCv-68" vertex="1" connectable="0">
          <mxGeometry x="-0.9212" y="4" relative="1" as="geometry">
            <mxPoint as="offset" />
          </mxGeometry>
        </mxCell>
        <mxCell id="vpqVdJL7Bu57h3PjeGCv-70" style="edgeStyle=orthogonalEdgeStyle;rounded=0;orthogonalLoop=1;jettySize=auto;html=1;exitX=1;exitY=1;exitDx=0;exitDy=0;entryX=0.613;entryY=0.067;entryDx=0;entryDy=0;entryPerimeter=0;" parent="1" source="vpqVdJL7Bu57h3PjeGCv-41" target="vpqVdJL7Bu57h3PjeGCv-45" edge="1">
          <mxGeometry relative="1" as="geometry" />
        </mxCell>
        <mxCell id="vpqVdJL7Bu57h3PjeGCv-71" value="**00" style="text;html=1;align=center;verticalAlign=middle;resizable=0;points=[];autosize=1;strokeColor=none;fillColor=none;" parent="1" vertex="1">
          <mxGeometry x="110" y="680" width="40" height="20" as="geometry" />
        </mxCell>
        <mxCell id="vpqVdJL7Bu57h3PjeGCv-72" style="edgeStyle=orthogonalEdgeStyle;rounded=0;orthogonalLoop=1;jettySize=auto;html=1;exitX=0.75;exitY=1;exitDx=0;exitDy=0;entryX=0.75;entryY=0;entryDx=0;entryDy=0;" parent="1" source="vpqVdJL7Bu57h3PjeGCv-36" target="vpqVdJL7Bu57h3PjeGCv-40" edge="1">
          <mxGeometry relative="1" as="geometry" />
        </mxCell>
        <mxCell id="vpqVdJL7Bu57h3PjeGCv-73" value="*101" style="text;html=1;align=center;verticalAlign=middle;resizable=0;points=[];autosize=1;strokeColor=none;fillColor=none;" parent="1" vertex="1">
          <mxGeometry x="90" y="560" width="40" height="20" as="geometry" />
        </mxCell>
        <mxCell id="vpqVdJL7Bu57h3PjeGCv-76" style="edgeStyle=orthogonalEdgeStyle;rounded=0;orthogonalLoop=1;jettySize=auto;html=1;exitX=0;exitY=1;exitDx=0;exitDy=0;entryX=0.944;entryY=0.933;entryDx=0;entryDy=0;entryPerimeter=0;" parent="1" source="vpqVdJL7Bu57h3PjeGCv-31" target="vpqVdJL7Bu57h3PjeGCv-36" edge="1">
          <mxGeometry relative="1" as="geometry" />
        </mxCell>
        <mxCell id="vpqVdJL7Bu57h3PjeGCv-77" value="*111" style="edgeLabel;html=1;align=center;verticalAlign=middle;resizable=0;points=[];" parent="vpqVdJL7Bu57h3PjeGCv-76" vertex="1" connectable="0">
          <mxGeometry x="-0.5318" y="4" relative="1" as="geometry">
            <mxPoint as="offset" />
          </mxGeometry>
        </mxCell>
        <mxCell id="vpqVdJL7Bu57h3PjeGCv-80" style="edgeStyle=orthogonalEdgeStyle;rounded=0;orthogonalLoop=1;jettySize=auto;html=1;exitX=0.25;exitY=1;exitDx=0;exitDy=0;entryX=0.056;entryY=0.133;entryDx=0;entryDy=0;entryPerimeter=0;" parent="1" source="vpqVdJL7Bu57h3PjeGCv-46" target="vpqVdJL7Bu57h3PjeGCv-5" edge="1">
          <mxGeometry relative="1" as="geometry">
            <Array as="points">
              <mxPoint x="110" y="880" />
              <mxPoint x="-130" y="880" />
              <mxPoint x="-130" y="358" />
            </Array>
          </mxGeometry>
        </mxCell>
        <mxCell id="vpqVdJL7Bu57h3PjeGCv-81" value="1*10" style="text;html=1;align=center;verticalAlign=middle;resizable=0;points=[];autosize=1;strokeColor=none;fillColor=none;" parent="1" vertex="1">
          <mxGeometry x="100" y="840" width="40" height="20" as="geometry" />
        </mxCell>
        <mxCell id="vpqVdJL7Bu57h3PjeGCv-82" style="edgeStyle=orthogonalEdgeStyle;rounded=0;orthogonalLoop=1;jettySize=auto;html=1;exitX=1;exitY=0.75;exitDx=0;exitDy=0;entryX=0.15;entryY=1;entryDx=0;entryDy=0;entryPerimeter=0;" parent="1" source="vpqVdJL7Bu57h3PjeGCv-46" target="vpqVdJL7Bu57h3PjeGCv-31" edge="1">
          <mxGeometry relative="1" as="geometry" />
        </mxCell>
        <mxCell id="vpqVdJL7Bu57h3PjeGCv-83" value="*011" style="edgeLabel;html=1;align=center;verticalAlign=middle;resizable=0;points=[];" parent="vpqVdJL7Bu57h3PjeGCv-82" vertex="1" connectable="0">
          <mxGeometry x="-0.677" y="6" relative="1" as="geometry">
            <mxPoint as="offset" />
          </mxGeometry>
        </mxCell>
        <mxCell id="vpqVdJL7Bu57h3PjeGCv-84" style="edgeStyle=orthogonalEdgeStyle;rounded=0;orthogonalLoop=1;jettySize=auto;html=1;exitX=1;exitY=0.75;exitDx=0;exitDy=0;entryX=0.625;entryY=0;entryDx=0;entryDy=0;entryPerimeter=0;" parent="1" source="vpqVdJL7Bu57h3PjeGCv-31" target="vpqVdJL7Bu57h3PjeGCv-25" edge="1">
          <mxGeometry relative="1" as="geometry">
            <Array as="points">
              <mxPoint x="390" y="550" />
              <mxPoint x="410" y="550" />
              <mxPoint x="410" y="610" />
            </Array>
          </mxGeometry>
        </mxCell>
        <mxCell id="vpqVdJL7Bu57h3PjeGCv-85" value="0001" style="text;html=1;align=center;verticalAlign=middle;resizable=0;points=[];autosize=1;strokeColor=none;fillColor=none;" parent="1" vertex="1">
          <mxGeometry x="360" y="540" width="40" height="20" as="geometry" />
        </mxCell>
        <mxCell id="vpqVdJL7Bu57h3PjeGCv-63" value="*101" style="text;html=1;align=center;verticalAlign=middle;resizable=0;points=[];autosize=1;strokeColor=none;fillColor=none;" parent="1" vertex="1">
          <mxGeometry x="460" y="550" width="40" height="20" as="geometry" />
        </mxCell>
        <mxCell id="vpqVdJL7Bu57h3PjeGCv-87" value="" style="edgeStyle=orthogonalEdgeStyle;rounded=0;orthogonalLoop=1;jettySize=auto;html=1;exitX=0.25;exitY=1;exitDx=0;exitDy=0;entryX=0.75;entryY=0;entryDx=0;entryDy=0;endArrow=none;" parent="1" source="vpqVdJL7Bu57h3PjeGCv-15" target="vpqVdJL7Bu57h3PjeGCv-63" edge="1">
          <mxGeometry relative="1" as="geometry">
            <mxPoint x="490" y="550" as="sourcePoint" />
            <mxPoint x="420" y="640" as="targetPoint" />
          </mxGeometry>
        </mxCell>
      </root>
    </mxGraphModel>
  </diagram>
</mxfile>
